<?xml version="1.0" encoding="utf-8"?>
<!-- Generator: Adobe Illustrator 26.2.1, SVG Export Plug-In . SVG Version: 6.00 Build 0)  -->
<svg version="1.1" id="Layer_1" xmlns="http://www.w3.org/2000/svg" xmlns:xlink="http://www.w3.org/1999/xlink" x="0px" y="0px"
	 viewBox="0 0 100 100" style="enable-background:new 0 0 100 100;" xml:space="preserve">
<style type="text/css">
	.st0{fill:#030303;}
	.st1{fill:#D32525;}
	.st2{display:none;fill:none;stroke:#D32525;stroke-miterlimit:10;}
</style>
<g>
	<path class="st0" d="M71.17,73.25c-1.85-2.16-3.74-4.27-5.64-6.38c-1.39-1.56-3.29-1.97-5.23-1.18c-3.55,1.47-6.79,0.65-9.13-2.36
		c-1.07-1.37-2.15-2.75-3.21-4.13c-0.65-0.83-1.84-0.99-2.68-0.37c-0.51,0.39-0.78,0.96-0.78,1.55c0,0.41,0.14,0.82,0.4,1.18
		c0.97,1.27,1.93,2.53,2.89,3.81c3.42,4.58,9.2,5.98,13.89,3.74c0.5-0.24,0.81-0.06,1.1,0.3c1.76,2.19,3.54,4.35,5.26,6.57
		c0.9,1.15,0.86,1.39-0.35,2.25c-1.34,0.94-2.12,2.11-2.57,3.71c-1.28,4.51-4.68,7.06-9.36,7.14c-1.56,0.03-2.72,0.73-3.8,1.75
		c-0.97,0.91-1.08,0.88-1.92-0.17c-1.78-2.21-3.54-4.43-5.33-6.63c-0.42-0.51-0.46-0.89-0.02-1.48c3.06-4.22,2.59-10.09-0.62-14.22
		C38.63,61.32,33.16,54.3,27.7,47.3c-0.24-0.32-0.48-0.63-0.74-0.98h5.63c0.43-0.01,0.63,0.3,0.86,0.58
		c1.96,2.52,3.95,5.03,5.92,7.53c0.65,0.83,1.84,0.98,2.67,0.35c0.51-0.38,0.78-0.96,0.78-1.55c0-0.41-0.13-0.83-0.4-1.18
		c-1.22-1.56-2.42-3.12-3.64-4.68c-0.11-0.16-0.32-0.29-0.27-0.57c0.24,0.03,0.48,0.03,0.71,0.1c1.97,0.66,4.02,0.62,6.05,0.59
		c2.07-0.02,2.57-0.5,2.57-2.53c0-10.89-0.06-21.78,0.03-32.67c0.02-2.46-1.07-3.88-3.13-4.85c-1.88-0.89-3.9-1.35-5.96-1.64
		c-6.31-0.92-12.64-0.94-18.98-0.16c-2.54,0.31-5.06,0.8-7.36,2.01c-1.79,0.94-2.72,2.32-2.7,4.46c0.03,5.83,0.03,11.66,0.03,17.51
		c0,1.04,0.84,1.88,1.88,1.88c1.03,0,1.87-0.83,1.87-1.86c0-0.01,0-0.01,0-0.02v-0.47c-0.01-0.78,0.27-1.16,0.94-1.45
		c2.18-0.94,4.5-1.31,6.82-1.56c5.53-0.59,11.07-0.57,16.59,0.17c1.91,0.26,3.78,0.63,5.58,1.34c0.6,0.24,0.86,0.6,0.84,1.3
		c-0.03,4.87-0.01,9.76-0.01,14.69c-1.8,0.35-3.4-0.32-5.04-0.54c-7.85-1.08-15.66-1.16-23.44,0.54c-0.7,0.15-1.45,0.08-2.13,0.1
		c-0.21-0.32-0.13-0.6-0.13-0.87v-3.56c0-1.05-0.84-1.89-1.89-1.89c-1.05,0-1.89,0.84-1.89,1.89v5.58c0,0.37-0.01,0.73,0.06,1.1
		c0.15,0.79,0.62,1.37,1.44,1.44c1.76,0.14,3.55,0.27,5.28-0.05c1.73-0.33,3.48-0.62,5.22-0.91c0.52-0.09,0.88,0.01,1.23,0.47
		c6.29,8.01,12.61,16,18.9,24.01c2.33,2.96,2.35,6.33,0.14,9.36c-1.57,2.12-1.28,4.32,0.86,6.38c1.48,1.44,2.9,2.96,3.9,4.76
		c2.09,3.77,5.19,4.53,7.97,2.05c0.79-0.72,1.6-1.05,2.68-1.1c5.41-0.25,10.32-4.11,11.7-9.22c0.26-0.98,0.68-1.67,1.52-2.21
		c1.04-0.68,1.86-1.56,2.11-2.85C73.11,76.19,72.36,74.63,71.17,73.25z M13.54,11.75c-0.01-0.56,0.45-0.68,0.82-0.86
		c1.61-0.79,3.34-1.14,5.09-1.38c6.81-0.91,13.61-0.97,20.39,0.31c1.27,0.24,2.49,0.58,3.65,1.13c0.55,0.25,0.83,0.59,0.8,1.27
		c-0.06,1.32-0.01,2.66-0.01,3.89c-10.27-2.44-20.47-2.61-30.74-0.15V11.75z M44.28,23.81c-10.28-2.53-20.45-2.5-30.74,0
		c0-0.99-0.02-2.1,0.01-3.21c0.02-0.47,0.5-0.57,0.84-0.74c1.73-0.81,3.59-1.16,5.47-1.42c6.38-0.84,12.77-0.83,19.14,0.17
		c1.56,0.24,3.1,0.58,4.58,1.22c0.5,0.23,0.74,0.51,0.72,1.11C44.23,21.92,44.28,22.9,44.28,23.81z"/>
	<path class="st0" d="M90.53,39.29c-0.94,0-1.71,0.77-1.7,1.71c0,0.9,0,1.79,0,2.68v0.9c-1.44,0.25-2.76-0.07-4.11-0.33
		c-5.58-1.08-11.21-1.14-16.85-0.79c-2.56,0.17-5.08,0.52-7.58,1.12c-0.66,0.16-1.39,0.02-2.1,0.02c-0.18-0.27-0.09-0.59-0.09-0.89
		c-0.01-4.51,0.02-9.03-0.03-13.53c0-0.86,0.33-1.28,1.05-1.57c2.03-0.85,4.17-1.23,6.33-1.48c5.38-0.63,10.82-0.64,16.2,0.04
		c2.09,0.26,4.16,0.65,6.12,1.44c0.72,0.28,1.11,0.15,1.03,3.16c-0.02,0.91,0.81,1.62,1.72,1.62h0c0.95,0,1.72-0.77,1.72-1.72
		c-0.01-6.09,0-12.19,0.05-18.28c0.02-2.56-1.08-4.06-3.26-5.04c-1.87-0.86-3.86-1.32-5.88-1.61c-6.76-0.96-13.51-0.96-20.24,0.03
		c-2.48,0.37-4.92,0.9-7.05,2.35c-1.24,0.84-1.87,1.96-1.87,3.54c0.03,11.14,0.02,22.28,0.02,33.41c0,1.78,0.57,2.36,2.34,2.36
		c2.4,0.01,4.82,0.22,7.12-0.79c0.05,0.08,0.08,0.16,0.11,0.23c-1.2,1.54-2.4,3.07-3.59,4.61c-1.81,2.33-3.65,4.64-5.45,6.98
		c-0.9,1.16-0.65,2.44,0.51,3c0.91,0.43,1.75,0.19,2.46-0.73c3.67-4.68,7.35-9.36,11.02-14.04c0.19-0.25,0.34-0.59,0.73-0.62
		c1.91-0.11,3.8-0.17,5.88-0.13c-0.35,0.45-0.58,0.75-0.82,1.06c-4.11,5.26-5.4,7.69-9.52,12.95c-0.88,1.14-0.89,2.24-0.03,2.92
		c0.99,0.78,2.07,0.57,2.97-0.58c4.58-5.83,6.36-8.8,10.87-14.69c0.83-1.07,1.62-1.37,2.89-1.13c2.72,0.49,5.41,1.19,8.23,0.98
		c1.99-0.15,2.54-0.58,2.54-2.59c0-1.63,0-3.25,0-4.88C92.23,40.05,91.47,39.29,90.53,39.29L90.53,39.29z M57.71,12.77
		c0-0.57,0.47-0.68,0.82-0.86c1.69-0.81,3.51-1.21,5.35-1.46c6.85-0.95,13.68-0.94,20.49,0.32c1.2,0.23,2.37,0.52,3.48,1.06
		c0.34,0.16,0.62,0.32,0.6,0.79c-0.02,1.44-0.01,2.86-0.01,4.25c-10.25-2.53-20.46-2.5-30.74,0.02
		C57.71,15.57,57.72,14.16,57.71,12.77z M57.9,21.67c0.01-0.52,0.48-0.66,0.86-0.84c1.71-0.82,3.58-1.18,5.44-1.43
		c6.32-0.83,12.64-0.87,18.94,0.15c1.56,0.26,3.1,0.62,4.56,1.26c0.65,0.27,1.03,0.64,0.96,1.44c-0.09,0.86-0.02,1.73-0.02,2.5
		c-10.28-2.52-20.46-2.5-30.74,0.02C57.9,23.78,57.89,22.73,57.9,21.67z"/>
	<path class="st1" d="M56,72.91c-3.57,0-6.58,2.99-6.57,6.53c0.01,3.54,3.05,6.55,6.58,6.54c3.51,0,6.5-2.99,6.5-6.49
		C62.52,75.89,59.56,72.91,56,72.91z M56.21,83.82c-2.43,0.02-4.48-1.93-4.46-4.26c0.01-2.34,1.91-4.31,4.14-4.35
		c2.36-0.02,4.45,1.91,4.47,4.15C60.4,81.72,58.47,83.8,56.21,83.82z"/>
</g>
<path class="st2" d="M27.85,38.24c-1.28,1.06-3.17,0.87-4.23-0.41c-1.05-1.28-0.87-3.18,0.41-4.23c1.28-1.06,3.18-0.87,4.23,0.41
	C29.32,35.29,29.14,37.19,27.85,38.24z"/>
<circle class="st2" cx="73.49" cy="35.92" r="3.01"/>
</svg>
