<?xml version="1.0" encoding="utf-8"?>
<!-- Generator: Adobe Illustrator 26.2.1, SVG Export Plug-In . SVG Version: 6.00 Build 0)  -->
<svg version="1.1" id="Layer_1" xmlns="http://www.w3.org/2000/svg" xmlns:xlink="http://www.w3.org/1999/xlink" x="0px" y="0px"
	 viewBox="0 0 100 100" style="enable-background:new 0 0 100 100;" xml:space="preserve">
<style type="text/css">
	.st0{fill:#D32525;}
	.st1{fill:#050505;}
</style>
<g>
	<path class="st0" d="M55.3,41.05c-0.23,1.97-1.78,3.47-3.76,3.62c-0.92,0.08-1.86,0.05-2.79,0.05c-1.73-0.01-3.02-0.54-3.82-1.55
		c-0.63-0.79-0.95-1.88-0.95-3.25V27.33h2.76c0,0,0,0.31-0.01,0.83c0,2.52-0.03,10.04,0.01,12.47c0.01,0.81,0.57,1.32,1.41,1.35
		c1.01,0.04,2.04,0.05,3.06,0c0.88-0.04,1.35-0.58,1.43-1.44c0.05-0.51,0-1.02,0.04-1.53c0.06-0.79,0.6-1.32,1.32-1.32
		c0.71-0.01,1.3,0.5,1.35,1.29C55.39,39.67,55.38,40.36,55.3,41.05z"/>
	<path class="st0" d="M55.35,34.39c-0.02,0.94-0.54,1.47-1.35,1.47c-0.81,0.01-1.35-0.49-1.35-1.46c0-0.44-0.08-5.2-0.08-6.16
		l2.79-0.02C55.36,28.61,55.38,32.34,55.35,34.39z"/>
	<path class="st1" d="M56.34,62.92c-0.5-0.21-0.7-0.44-0.68-0.98c0.05-1.02,0.03-2.04,0.01-3.06c-0.05-1.87-1.15-2.94-3-2.98h-1.28
		v-3.07c0.98,0,1.9-0.02,2.83,0c2.54,0.05,4.41-1.03,5.7-3.24c1.93-3.31,3.93-6.59,5.92-9.87c0.56-0.94,1.06-1.91,1.2-2.99
		c0.35-2.56,0.34-5.15,0.07-7.72c-0.17-1.71-1.54-2.99-3.21-3.35c-0.31-0.07-0.63-0.13-0.99-0.2v-1.01c0-6.19-0.01-12.38,0.01-18.57
		c0-0.83-0.16-1.53-0.86-2.02h-1.09c-0.64,0.54-0.79,1.22-0.79,2.04c0.03,5.68,0.02,11.36,0.02,17.04V24
		c-2.98-2.82-6.36-4.25-10.27-4.24c-3.87,0.01-7.22,1.44-10.17,4.25v-1.07c0-5.68-0.02-11.36,0.01-17.04
		c0.01-0.82-0.15-1.5-0.79-2.04H37.9c-0.72,0.49-0.87,1.19-0.87,2.02c0.03,6.22,0.02,12.44,0.01,18.65c0,0.32,0.1,0.66-0.09,0.96
		c-2.96,0.48-4.24,1.97-4.24,4.95c0,1.32,0.02,2.64-0.01,3.96c-0.03,1.98,0.46,3.78,1.5,5.47c0.54,0.87,1.08,1.74,1.61,2.62
		c0.39,0.63,1.21,0.84,1.85,0.45h0c0.63-0.38,0.83-1.2,0.45-1.83c-0.59-0.99-1.19-1.99-1.79-2.98c-0.62-1.03-0.89-2.16-0.9-3.35
		c-0.01-1.53-0.01-3.06,0-4.6c0.01-1.36,0.56-1.93,1.91-1.93c2.79-0.01,4.92-0.03,6.65-0.05c1.04-0.01,1.94-0.02,2.75-0.03
		c4.77-0.07,6.42-0.1,16.4,0.11c0.85,0.02,1.38,0.67,1.39,1.6c0.03,1.8,0.03,3.6-0.01,5.4c-0.02,1.04-0.37,2-0.9,2.89
		c-2.07,3.44-4.15,6.88-6.2,10.33c-0.65,1.08-1.58,1.62-2.82,1.62c-3.06,0.01-6.13,0-9.19,0c-1.28,0-2.22-0.55-2.88-1.66
		c-0.32-0.54-0.64-1.07-0.96-1.61c-0.39-0.64-1.23-0.85-1.87-0.46l0,0c-0.62,0.38-0.84,1.19-0.47,1.82
		c0.16,0.28,0.32,0.57,0.48,0.86c1.49,2.68,3.61,3.98,6.68,3.78c0.73-0.05,1.48-0.11,2.2,0.07v2.99h-1.1
		c-2.08,0.02-3.18,1.09-3.19,3.16c-0.01,1.89-0.01,3.78,0,5.67c0.02,3.15,1.33,5.61,3.98,7.33c1.34,0.88,2.91,1.09,4.39,1.55
		c0.67,0.22,1.24-0.16,1.47-0.86c0.23-0.68,0.02-1.26-0.62-1.61c-0.71-0.39-1.52-0.53-2.3-0.75c-2.22-0.63-3.7-2.07-4.06-4.33
		c-0.39-2.43-0.09-4.9-0.16-7.4h5.98v3c0,2.38,0.39,2.96,2.59,3.86c6.14,2.5,9.85,9.09,8.81,15.64
		c-0.97,6.09-5.74,10.98-11.79,12.09c-6.08,1.11-12.22-1.79-15.26-7.2c-0.99-1.77-1.62-3.65-1.79-5.76h2.75
		c1.67,0.01,2.93,0.76,3.83,2.14c0.19,0.31,0.35,0.63,0.54,0.94c2.16,3.56,6.56,5.06,10.43,3.57c3.85-1.49,6.13-5.62,5.34-9.67
		c-0.03-0.15-0.07-0.29-0.12-0.43c-0.24-0.84-0.82-1.22-1.61-1.06c-0.73,0.14-1.16,0.81-1.01,1.64c0.46,2.37-0.08,4.43-1.95,6.01
		c-2.86,2.41-7.08,1.58-8.93-1.77c-1.17-2.12-2.84-3.58-5.25-3.97c-1.87-0.3-3.78-0.14-5.67-0.07c-0.77,0.02-1.15,0.64-1.14,1.38
		c0,0.81,0.05,1.62,0.18,2.42c1.58,9.91,10.67,16.28,20.53,14.4c8.97-1.71,15.18-10.74,13.53-19.73
		C65.81,69.79,62.22,65.41,56.34,62.92z M42.23,25.46c4.48-3.97,11.29-3.96,15.47,0H42.23z"/>
</g>
</svg>
