<?xml version="1.0" encoding="utf-8"?>
<!-- Generator: Adobe Illustrator 26.2.1, SVG Export Plug-In . SVG Version: 6.00 Build 0)  -->
<svg version="1.1" id="Layer_1" xmlns="http://www.w3.org/2000/svg" xmlns:xlink="http://www.w3.org/1999/xlink" x="0px" y="0px"
	 viewBox="0 0 100 100" style="enable-background:new 0 0 100 100;" xml:space="preserve">
<style type="text/css">
	.st0{fill:#D32525;}
	.st1{display:none;}
	.st2{display:inline;}
	.st3{display:inline;fill:#D32525;}
</style>
<g id="_x31_">
	<path d="M37.93,44.55c1.47-0.01,2.69,0.57,3.7,1.61c1.57,1.61,3.14,3.21,4.71,4.81c1.34,1.37,2.12,1.36,3.49-0.03
		c4.9-5,9.8-10,14.7-15c2.42-2.46,5.28-2.46,7.72-0.01c0.44,0.45,0.88,0.89,1.32,1.35c2.38,2.47,2.38,5.35,0,7.79
		c-3.99,4.08-8,8.16-11.99,12.24c-3.19,3.25-6.38,6.51-9.57,9.76c-2.51,2.56-5.35,2.56-7.86,0.01c-3.84-3.91-7.68-7.83-11.51-11.74
		c-2.26-2.31-2.26-5.26-0.02-7.57c0.6-0.62,1.19-1.24,1.81-1.83C35.41,45,36.57,44.53,37.93,44.55z M37.95,47.49
		c-0.54,0.31-1.03,0.5-1.42,0.82c-0.53,0.44-0.98,0.98-1.46,1.47c-1.28,1.33-1.3,2.17-0.03,3.46c3.8,3.9,7.62,7.78,11.43,11.67
		c1.15,1.17,2.04,1.17,3.2-0.01c2.2-2.23,4.39-4.47,6.59-6.71c4.99-5.09,9.97-10.18,14.96-15.28c1.31-1.33,1.3-2.19-0.03-3.54
		c-0.37-0.38-0.74-0.75-1.11-1.13c-1.32-1.33-2.08-1.33-3.4,0.01c-4.88,4.97-9.75,9.94-14.63,14.91c-2.52,2.57-5.46,2.58-7.96,0.03
		c-1.55-1.58-3.08-3.18-4.65-4.73C39.05,48.09,38.5,47.85,37.95,47.49z"/>
	<path d="M94.55,35.32c-0.24,10.32-1.92,20.31-6.12,29.78c-0.59,1.33-1.36,1.79-2.31,1.39c-0.97-0.41-1.16-1.3-0.62-2.62
		c0.68-1.68,1.39-3.35,1.98-5.06c3.03-8.86,4.05-17.99,3.58-27.31c-0.12-2.4-0.42-4.8-0.66-7.19c-0.15-1.47-0.47-1.8-1.92-2.06
		c-9.42-1.69-18.37-4.78-26.72-9.45c-3.53-1.98-6.87-4.3-10.27-6.51c-1.41-0.92-1.58-0.93-2.98,0c-3.02,2-6.08,3.96-9.13,5.92
		c-0.71,0.46-1.44,0.5-2.09-0.1c-0.54-0.5-0.68-1.16-0.33-1.8c0.18-0.33,0.51-0.6,0.83-0.81c3.14-2.07,6.3-4.11,9.43-6.18
		c1.85-1.22,3.83-1.23,5.71,0.15c4.91,3.6,10.1,6.72,15.64,9.25c6.66,3.05,13.61,5.17,20.8,6.5c2.43,0.45,3.88,1.9,4.14,4.38
		C93.92,27.5,94.21,31.41,94.55,35.32z"/>
	<path class="st0" d="M25.5,26.13c-0.4-0.05-0.67-0.31-0.77-0.76c-0.15-0.75-0.33-1.49-0.47-2.24c-0.45-2.42-1.93-3.78-4.31-4.23
		c-0.68-0.13-1.35-0.3-2.03-0.42c-0.5-0.09-0.82-0.33-0.86-0.85c-0.03-0.47,0.29-0.75,0.88-0.88c0.98-0.22,1.97-0.44,2.94-0.7
		c1.63-0.43,2.68-1.48,3.12-3.1c0.27-0.99,0.49-1.99,0.71-3c0.11-0.49,0.34-0.84,0.87-0.84c0.53,0,0.76,0.34,0.87,0.83
		c0.26,1.12,0.51,2.25,0.84,3.35c0.4,1.33,1.31,2.23,2.64,2.63c0.96,0.29,1.95,0.53,2.93,0.74c0.9,0.2,1.26,0.43,1.25,0.97
		c-0.01,0.53-0.35,0.75-1.27,0.95c-0.98,0.21-1.97,0.45-2.93,0.75c-1.31,0.4-2.21,1.29-2.6,2.59c-0.34,1.12-0.58,2.26-0.85,3.4
		C26.31,25.85,26.01,26.14,25.5,26.13z M29.54,17.6c-2.04-0.67-3.28-1.95-3.96-3.92c-0.68,1.99-1.93,3.24-3.92,3.92
		c1.99,0.68,3.25,1.95,3.93,3.93C26.26,19.55,27.52,18.29,29.54,17.6z"/>
	<path class="st0" d="M75.28,81.63c-0.41-0.05-0.66-0.32-0.76-0.78c-0.19-0.91-0.39-1.81-0.61-2.71c-0.44-1.76-1.54-2.87-3.3-3.31
		c-0.88-0.22-1.77-0.42-2.66-0.61c-0.48-0.1-0.8-0.31-0.84-0.82c-0.03-0.45,0.28-0.74,0.84-0.86c0.97-0.22,1.94-0.43,2.9-0.69
		c1.53-0.42,2.53-1.4,2.96-2.93c0.24-0.84,0.44-1.69,0.62-2.55c0.19-0.9,0.4-1.22,0.92-1.23c0.52-0.01,0.74,0.33,0.94,1.21
		c0.21,0.97,0.44,1.94,0.74,2.89c0.39,1.24,1.24,2.1,2.48,2.49c1.06,0.33,2.15,0.56,3.24,0.82c0.58,0.14,0.87,0.4,0.87,0.85
		c0,0.44-0.29,0.71-0.87,0.85c-1.08,0.26-2.17,0.49-3.24,0.82c-1.23,0.38-2.08,1.22-2.46,2.44c-0.34,1.09-0.57,2.22-0.84,3.34
		C76.06,81.35,75.77,81.64,75.28,81.63z M79.17,73.38c-1.95-0.66-3.16-1.88-3.82-3.8c-0.65,1.92-1.88,3.15-3.81,3.81
		c1.95,0.65,3.15,1.9,3.81,3.8C76.02,75.24,77.24,74.04,79.17,73.38z"/>
	<path d="M15.27,35.81c0-1.71-0.04-3.43,0.02-5.14c0.02-0.5,0.21-1.05,0.47-1.49c0.38-0.66,1.02-0.93,1.78-0.67
		c0.79,0.27,1.14,0.85,1.1,1.67c-0.11,2.2-0.38,4.4-0.31,6.59c0.25,8.16,1.77,16.06,5.36,23.45c5.36,11.04,13.93,18.55,25.42,22.76
		c0.53,0.19,1.26,0.17,1.79-0.03c1.75-0.67,3.46-1.45,5.18-2.22c1.16-0.52,2.02-0.35,2.48,0.54c0.45,0.89,0.1,1.77-1.05,2.29
		c-1.89,0.86-3.81,1.64-5.72,2.45c-1.22,0.52-2.42,0.44-3.66-0.01c-15.29-5.68-25.3-16.37-30.19-31.89
		C16.15,48.49,15.22,42.08,15.27,35.81z"/>
	<path d="M5.45,35.29c0.26-3.42,0.48-6.84,0.81-10.26c0.06-0.59,0.4-1.29,0.85-1.66c0.32-0.26,1.18-0.27,1.52-0.02
		c0.42,0.31,0.78,1.02,0.76,1.55c-0.09,2.21-0.42,4.4-0.51,6.61c-0.55,13.24,1.58,25.9,8.22,37.57c0.34,0.6,0.72,1.19,1.06,1.79
		c0.56,0.98,0.41,1.84-0.38,2.35c-0.82,0.53-1.71,0.27-2.33-0.73c-2.9-4.6-5.08-9.54-6.66-14.74C6.56,50.44,5.62,42.94,5.45,35.29z"
		/>
	<path d="M49.93,97.59c-0.91-0.24-1.88-0.46-2.82-0.75c-7.64-2.43-14.52-6.23-20.62-11.45c-0.2-0.17-0.41-0.34-0.58-0.54
		c-0.54-0.62-0.55-1.5-0.01-2.08c0.6-0.64,1.33-0.76,2.05-0.26c0.7,0.49,1.33,1.08,2,1.62c5.76,4.62,12.18,7.97,19.27,9.99
		c0.55,0.16,1.25,0.09,1.81-0.08c5.53-1.66,10.7-4.1,15.48-7.36c1.39-0.95,2.32-0.94,2.91,0c0.56,0.9,0.21,1.71-1.14,2.63
		c-5.12,3.46-10.63,6.09-16.56,7.83C51.17,97.32,50.59,97.44,49.93,97.59z"/>
	<path d="M84.79,36.15c-0.08,6.97-1.26,13.76-3.51,20.36c-0.41,1.2-1.16,1.68-2.12,1.37c-0.93-0.29-1.27-1.18-0.87-2.36
		c2.55-7.54,3.66-15.3,3.38-23.25c-0.03-0.91-0.16-1.72-0.84-2.44c-0.59-0.63-0.51-1.4,0.07-2.06c0.55-0.61,1.48-0.66,2.15-0.1
		c0.91,0.77,1.48,1.76,1.64,2.95c0.04,0.26,0.09,0.52,0.09,0.79C84.79,32.98,84.79,34.56,84.79,36.15z"/>
	<path d="M50.17,13.38c0.74,0.28,1.66,0.48,2.42,0.96c4.3,2.7,8.75,5.11,13.41,7.13c1.13,0.49,1.54,1.36,1.14,2.26
		c-0.4,0.89-1.35,1.19-2.46,0.61c-4.43-2.31-8.84-4.66-13.24-7.03c-0.74-0.4-1.39-0.76-2.3-0.48c-0.85,0.26-1.6-0.27-1.85-1.07
		c-0.24-0.78,0.13-1.58,0.98-1.9C48.81,13.65,49.4,13.56,50.17,13.38z"/>
	<path d="M72.87,24.14c0.87,0.32,2.01,0.64,3.06,1.17c0.68,0.34,0.79,1.12,0.5,1.83c-0.3,0.71-0.92,1.11-1.67,0.93
		c-0.99-0.23-1.97-0.56-2.89-0.97c-0.69-0.31-0.98-0.96-0.78-1.74C71.29,24.6,71.81,24.22,72.87,24.14z"/>
	<path d="M22.52,80.88c-0.53-0.27-0.97-0.39-1.25-0.66c-0.58-0.57-1.12-1.21-1.61-1.87c-0.52-0.7-0.39-1.6,0.23-2.13
		c0.61-0.52,1.55-0.51,2.14,0.11c0.57,0.59,1.18,1.19,1.57,1.89c0.25,0.45,0.3,1.16,0.12,1.63C23.56,80.27,22.96,80.53,22.52,80.88z
		"/>
</g>
<g id="_x32_" class="st1">
	<path class="st2" d="M72.69,3.86c1.72,0.69,2.41,2.01,2.83,3.8c1.43,6.2,5.67,9.55,11.67,10.96c0.47,0.11,0.95,0.15,1.42,0.22
		c2.04,0.32,3.2,1.61,3.22,3.67c0.03,3,0.06,6-0.01,9c-0.09,4.02-0.25,8.03-0.42,12.04c-0.04,0.95-0.22,1.9-0.39,2.85
		c-0.14,0.78-0.78,1.26-1.47,1.16c-0.74-0.1-1.27-0.76-1.14-1.57c1.3-7.72,0.65-15.51,0.82-23.26c0.02-0.8-0.31-1.18-1.13-1.29
		c-4.72-0.64-8.75-2.63-11.85-6.32c-1.79-2.13-2.95-4.57-3.42-7.33c-0.2-1.18-0.33-1.28-1.52-1.28c-14.22,0-28.44,0-42.66-0.01
		c-0.81,0-1.25,0.22-1.43,1.09c-1.52,7.52-6.37,11.73-13.59,13.55c-0.61,0.15-1.23,0.25-1.86,0.32c-0.66,0.07-0.98,0.43-0.97,1.07
		c0.16,7.85-0.53,15.72,0.83,23.53c0.17,0.98-0.25,1.65-1.05,1.77c-0.81,0.13-1.46-0.35-1.55-1.35c-0.31-3.46-0.7-6.92-0.81-10.39
		c-0.14-4.38-0.04-8.76-0.03-13.14c0-2.64,1.06-3.84,3.68-4.17C18.17,18,23.32,13.55,24.5,7.66c0.36-1.81,1.1-3.11,2.82-3.8
		C42.45,3.86,57.57,3.86,72.69,3.86z"/>
	<path class="st2" d="M50.01,9.95c5.28,0,10.56,0.04,15.84-0.02c2.17-0.02,3.6,0.87,4.58,2.81c2.52,4.99,6.44,8.52,11.53,10.76
		c2.8,1.23,3.5,2.2,3.46,5.29c-0.06,4.02-0.01,8.04-0.31,12.04c-0.58,7.7-2.94,14.91-6.67,21.65
		c-6.17,11.13-15.12,19.41-26.28,25.38c-1.4,0.75-2.8,0.79-4.21,0.03c-11.76-6.29-21.05-15.08-27.2-27.01
		c-4.08-7.92-6.1-16.36-6.14-25.26c-0.01-2.49,0.01-4.98-0.01-7.47c-0.01-2.12,0.91-3.58,2.9-4.4c5.47-2.27,9.62-6,12.28-11.33
		c0.83-1.66,2.17-2.48,4.04-2.47C39.21,9.96,44.61,9.95,50.01,9.95z M50.05,12.56c-5.34,0-10.68,0.01-16.02-0.01
		c-0.89,0-1.54,0.27-1.96,1.12c-2.92,5.87-7.5,9.95-13.5,12.48c-0.93,0.39-1.36,0.95-1.34,1.97c0.04,2.67-0.01,5.34,0.02,8.01
		c0.08,8.17,1.97,15.92,5.66,23.2c5.86,11.57,14.81,20.08,26.16,26.18c0.76,0.41,1.41,0.26,2.12-0.12
		c8.14-4.39,15.13-10.14,20.68-17.57c5.9-7.9,9.62-16.72,10.55-26.57c0.4-4.23,0.27-8.51,0.36-12.76c0.03-1.64-0.13-1.82-1.65-2.48
		c-5.77-2.5-10.19-6.47-13.05-12.1c-0.51-1.01-1.18-1.37-2.26-1.37C60.56,12.58,55.31,12.56,50.05,12.56z"/>
	<path class="st2" d="M50.05,96.14c-0.59-0.17-1.13-0.26-1.6-0.49c-7.35-3.63-14.25-7.92-20.19-13.63
		C20.13,74.2,14.19,65.01,10.85,54.2c-0.1-0.31-0.22-0.64-0.2-0.96c0.05-0.67,0.44-1.12,1.12-1.21c0.78-0.1,1.24,0.32,1.48,1.03
		c0.57,1.64,1.07,3.31,1.72,4.92c5.14,12.78,13.74,22.68,25.27,30.07c2.92,1.87,6.04,3.43,9.1,5.09c0.33,0.18,0.91,0.21,1.25,0.05
		c11.27-5.43,20.95-12.8,28.08-23.23c3.49-5.11,6.16-10.61,7.99-16.52c0.07-0.23,0.13-0.46,0.22-0.68c0.3-0.76,0.94-1.13,1.61-0.93
		c0.72,0.21,1.14,0.93,0.88,1.72c-0.52,1.63-1.03,3.26-1.66,4.84c-5.52,14-14.94,24.72-27.65,32.62c-2.67,1.66-5.49,3.06-8.26,4.55
		C51.26,95.82,50.63,95.94,50.05,96.14z"/>
	<path class="st3" d="M47.48,61.11c-0.48-0.27-1.07-0.44-1.43-0.82c-3.87-4.02-7.71-8.06-11.55-12.11
		c-0.84-0.88-0.81-2.12,0.05-2.97c0.97-0.96,1.96-1.89,2.95-2.82c1-0.92,2.19-0.89,3.15,0.11c1.86,1.93,3.7,3.88,5.55,5.82
		c0.59,0.62,0.66,0.61,1.14-0.07c3.75-5.36,7.51-10.72,11.26-16.07c1.03-1.47,2.1-1.67,3.55-0.65c0.94,0.65,1.87,1.31,2.81,1.97
		c1.31,0.93,1.52,2.04,0.61,3.35C60.18,44.52,54.8,52.2,49.42,59.89c-0.46,0.66-1.04,1.06-1.86,1.07
		C47.53,61.01,47.51,61.06,47.48,61.11z M64.4,35.42c0.04-0.07,0.09-0.14,0.13-0.21c-0.18-0.09-0.37-0.16-0.53-0.27
		c-0.94-0.65-1.87-1.31-2.81-1.96c-0.69-0.48-0.72-0.47-1.2,0.21c-3.76,5.37-7.53,10.75-11.29,16.12c-1.05,1.49-2.44,1.6-3.7,0.28
		c-1.84-1.92-3.68-3.85-5.5-5.78c-0.35-0.37-0.6-0.4-0.97-0.03c-0.82,0.82-1.66,1.63-2.53,2.4c-0.41,0.37-0.45,0.64-0.04,1.06
		c3.71,3.87,7.4,7.75,11.1,11.63c0.46,0.49,0.61,0.47,1-0.07c0.98-1.39,1.95-2.77,2.92-4.16c4.35-6.21,8.7-12.42,13.05-18.64
		C64.16,35.81,64.28,35.61,64.4,35.42z"/>
</g>
</svg>
