<?xml version="1.0" encoding="utf-8"?>
<!-- Generator: Adobe Illustrator 26.2.1, SVG Export Plug-In . SVG Version: 6.00 Build 0)  -->
<svg version="1.1" id="Layer_1" xmlns="http://www.w3.org/2000/svg" xmlns:xlink="http://www.w3.org/1999/xlink" x="0px" y="0px"
	 viewBox="0 0 100 100" style="enable-background:new 0 0 100 100;" xml:space="preserve">
<style type="text/css">
	.st0{fill:#030303;}
	.st1{fill:#D32525;}
</style>
<g>
	<path class="st0" d="M93.45,55.69c-0.26,0.14-0.22,0.43-0.3,0.64c-0.76,2.01-2.52,3.29-4.67,3.34c-0.83,0.02-1.65,0.02-2.48,0
		c-0.36-0.01-0.58,0.04-0.7,0.48c-0.74,2.63-1.77,5.14-3.12,7.52c-0.21,0.37-0.13,0.57,0.15,0.84c0.58,0.55,1.14,1.12,1.7,1.69
		c1.99,2.08,2.02,5.06,0.01,7.13c-1.97,2.04-3.98,4.05-6.02,6.02c-2.08,2.01-5.03,1.97-7.13-0.03c-0.58-0.55-1.15-1.11-1.69-1.7
		c-0.27-0.29-0.48-0.34-0.84-0.13c-2.38,1.35-4.89,2.38-7.52,3.12c-0.37,0.1-0.48,0.26-0.47,0.62c0.02,0.85,0.02,1.71,0,2.56
		c-0.06,2.74-2.21,4.92-4.96,4.95c-2.87,0.03-5.73,0.03-8.6,0c-2.78-0.03-4.94-2.22-4.98-5.01c-0.02-0.96,0-1.93,0-2.97
		c-1.6-0.49-3.19-0.97-4.71-1.67c-1.07-0.49-2.13-1.02-3.18-1.57c-0.4-0.21-0.66-0.24-0.98,0.13c-0.51,0.58-1.07,1.11-1.63,1.64
		c-2.09,2-5.05,2.06-7.13,0.06c-2.06-1.99-4.09-4.02-6.08-6.08c-1.97-2.05-1.91-5,0.03-7.07c0.67-0.72,1.84-1.29,1.92-2.16
		c0.08-0.81-0.77-1.69-1.18-2.56c-0.8-1.69-1.47-3.44-1.96-5.24c-0.13-0.47-0.33-0.58-0.79-0.59c-1.18-0.01-2.37,0.15-3.54-0.14
		c-2.23-0.55-3.82-2.48-3.84-4.78c-0.03-2.89-0.03-5.79,0-8.68c0.03-2.7,2.2-4.86,4.89-4.93c0.85-0.02,1.71-0.02,2.56,0
		c0.38,0.01,0.57-0.07,0.69-0.49c0.74-2.63,1.77-5.14,3.12-7.52c0.18-0.32,0.17-0.52-0.1-0.78c-0.58-0.55-1.14-1.12-1.7-1.69
		c-2.06-2.14-2.08-5.12,0-7.25c1.94-1.99,3.91-3.96,5.91-5.9c2.13-2.07,5.11-2.03,7.25,0.05c0.57,0.56,1.14,1.12,1.69,1.7
		c0.23,0.24,0.41,0.27,0.71,0.1c1.27-0.72,2.58-1.34,3.93-1.89c1.32-0.54,2.68-0.98,4.12-1.4c0-0.88,0-1.76,0-2.63
		c0.01-2.68,1.24-4.35,3.83-5.2c0.06-0.02,0.1-0.11,0.15-0.16c3.47,0,6.95,0,10.42,0c0.02,0.04,0.04,0.12,0.08,0.13
		c2.69,0.69,4.06,2.45,4.07,5.23c0,0.88,0,1.75,0,2.64c2.86,0.78,5.52,1.86,8.04,3.28c0.35,0.2,0.53,0.1,0.77-0.15
		c0.57-0.6,1.15-1.18,1.75-1.75c2.07-1.95,5.01-1.98,7.06-0.01c2.06,1.99,4.09,4.02,6.08,6.07c1.96,2.03,1.93,5.01-0.01,7.07
		c-0.55,0.58-1.1,1.16-1.7,1.69c-0.37,0.33-0.36,0.59-0.13,0.98c0.82,1.4,1.49,2.88,2.07,4.39c0.43,1.15,0.8,2.32,1.19,3.49
		c0.65,0,1.25,0,1.86,0c3.5,0,4.69,0.79,6.02,3.96c0.01,0.02,0.05,0.02,0.08,0.02C93.45,48.64,93.45,52.16,93.45,55.69z M51.1,89.44
		c1.35,0,2.7,0.01,4.05,0c1.22-0.01,1.89-0.68,1.91-1.89c0.01-1.24,0-2.48,0-3.72c0-1.25,0.37-1.75,1.58-2.05
		c3.31-0.82,6.42-2.1,9.33-3.88c0.99-0.61,1.62-0.52,2.44,0.28c0.89,0.87,1.75,1.76,2.64,2.63c0.99,0.97,1.87,0.97,2.87-0.02
		c1.86-1.84,3.71-3.7,5.56-5.56c1.01-1.01,0.99-1.89-0.03-2.93c-0.87-0.89-1.76-1.75-2.63-2.64c-0.74-0.75-0.83-1.39-0.27-2.3
		c1.8-2.96,3.11-6.12,3.94-9.48c0.28-1.12,0.79-1.51,1.93-1.51c1.3-0.01,2.59,0.01,3.89-0.01c1.11-0.02,1.81-0.7,1.82-1.81
		c0.02-2.76,0.02-5.51,0-8.27c-0.01-1.15-0.7-1.83-1.87-1.84c-1.27-0.02-2.54,0-3.8-0.01c-1.15-0.01-1.68-0.39-1.96-1.48
		c-0.84-3.36-2.13-6.52-3.94-9.48c-0.58-0.95-0.48-1.58,0.3-2.37c0.87-0.88,1.76-1.75,2.63-2.64c0.98-1,0.99-1.89,0.01-2.87
		c-1.86-1.88-3.73-3.75-5.61-5.61c-0.96-0.95-1.84-0.95-2.81,0c-0.91,0.89-1.79,1.8-2.7,2.68c-0.76,0.74-1.41,0.84-2.3,0.3
		c-2.98-1.82-6.17-3.13-9.56-3.97c-1.05-0.26-1.45-0.8-1.45-1.9c-0.01-1.27,0.01-2.54-0.01-3.8c-0.01-1.23-0.67-1.92-1.87-1.92
		c-2.73-0.01-5.46-0.01-8.19,0c-1.17,0.01-1.85,0.68-1.86,1.85c-0.02,1.3,0,2.59-0.01,3.89c-0.01,1.09-0.41,1.63-1.46,1.89
		c-3.36,0.83-6.52,2.13-9.48,3.93c-0.98,0.6-1.6,0.49-2.43-0.33c-0.88-0.87-1.75-1.76-2.64-2.63c-0.96-0.93-1.85-0.93-2.81,0.02
		c-1.88,1.86-3.75,3.74-5.61,5.61c-0.98,0.98-0.96,1.86,0.02,2.87c0.87,0.89,1.76,1.75,2.63,2.64c0.77,0.79,0.86,1.43,0.29,2.37
		c-1.81,2.96-3.1,6.12-3.94,9.48c-0.26,1.06-0.8,1.46-1.88,1.47c-1.3,0.01-2.59-0.01-3.89,0.01c-1.16,0.01-1.85,0.69-1.86,1.85
		c-0.01,2.73-0.01,5.46,0,8.19c0.01,1.21,0.69,1.87,1.91,1.89c1.27,0.01,2.54,0,3.8,0.01c1.1,0.01,1.65,0.4,1.91,1.44
		c0.83,3.39,2.15,6.57,3.97,9.56c0.55,0.9,0.45,1.55-0.28,2.3c-0.89,0.91-1.8,1.79-2.68,2.7c-0.94,0.97-0.95,1.86-0.01,2.81
		c1.86,1.88,3.74,3.75,5.61,5.62c0.99,0.98,1.87,0.98,2.87,0.01c0.89-0.87,1.75-1.76,2.64-2.63c0.8-0.79,1.42-0.88,2.37-0.31
		c2.96,1.8,6.12,3.11,9.48,3.94c1.1,0.27,1.49,0.8,1.49,1.95c0.01,1.24-0.01,2.48,0,3.72c0.01,1.32,0.66,1.96,2,1.97
		C48.46,89.45,49.78,89.44,51.1,89.44z"/>
	<g>
		<g>
			<path class="st1" d="M48.29,49.01c3.07-3.08,6.02-6.09,9.03-9.04c2.46-2.42,6.28-2.12,8.36,0.58c1.69,2.2,1.52,5.24-0.49,7.31
				c-1.78,1.84-3.62,3.63-5.43,5.45c-2.4,2.4-4.79,4.8-7.19,7.19c-2.64,2.63-5.89,2.62-8.53-0.01c-2.36-2.36-4.74-4.7-7.07-7.08
				c-1.64-1.68-2.03-4.1-1.07-6.2c0.93-2.04,3.06-3.35,5.31-3.25c1.46,0.07,2.72,0.63,3.76,1.67
				C46.04,46.73,47.12,47.83,48.29,49.01z M63.5,43.88c-0.03-0.67-0.3-1.25-0.84-1.7c-0.98-0.82-2.21-0.7-3.25,0.34
				c-3.24,3.23-6.47,6.46-9.7,9.69c-1,1-1.85,1-2.84,0.02c-1.39-1.38-2.76-2.77-4.15-4.14c-1.07-1.05-2.42-1.09-3.37-0.13
				c-0.92,0.94-0.9,2.28,0.12,3.31c2.36,2.39,4.74,4.77,7.13,7.13c1.04,1.03,2.33,1.03,3.37,0c4.28-4.25,8.54-8.52,12.8-12.79
				C63.24,45.14,63.5,44.58,63.5,43.88z"/>
		</g>
	</g>
	<path class="st0" d="M24.63,49.59c0.03-3.43,0.97-7.41,2.86-11.16c0.56-1.12,1.49-1.52,2.4-1.04c0.89,0.46,1.11,1.39,0.57,2.5
		c-3.04,6.25-3.39,12.63-0.86,19.11c3.59,9.18,13,15.16,22.83,14.54c3.25-0.21,6.33-1.05,9.25-2.52c1.09-0.55,2.09-0.24,2.49,0.73
		c0.36,0.87,0.02,1.68-0.94,2.18c-2.46,1.28-5.05,2.19-7.79,2.58c-9.71,1.39-17.87-1.58-24.41-8.88
		C26.92,63.03,24.6,56.64,24.63,49.59z"/>
	<path class="st0" d="M50.48,23.93c13.97,0.01,25.31,10.06,26.89,23.25c0.64,5.37-0.29,10.47-2.73,15.29
		c-0.52,1.02-1.41,1.39-2.3,0.96c-0.88-0.43-1.18-1.4-0.67-2.4c1.83-3.61,2.67-7.43,2.58-11.47C74,38.81,65.54,29.2,54.92,27.56
		c-5.03-0.78-9.81-0.05-14.36,2.22c-0.92,0.46-1.65,0.39-2.2-0.2c-0.49-0.53-0.62-1.15-0.32-1.83c0.19-0.42,0.54-0.67,0.94-0.88
		C42.81,24.91,46.87,23.96,50.48,23.93z"/>
	<g>
		<path class="st1" d="M35.2,32.88c-0.02,0.91-0.82,1.67-1.72,1.63c-0.88-0.04-1.59-0.79-1.58-1.68c0.01-0.93,0.78-1.65,1.71-1.62
			C34.5,31.24,35.22,32,35.2,32.88z"/>
	</g>
	<g>
		<path class="st1" d="M70.29,67.96c-0.01,0.93-0.78,1.66-1.7,1.63c-0.88-0.03-1.6-0.79-1.59-1.66c0.01-0.87,0.76-1.62,1.63-1.64
			C69.53,66.28,70.3,67.04,70.29,67.96z"/>
	</g>
</g>
</svg>
