<?xml version="1.0" encoding="utf-8"?>
<!-- Generator: Adobe Illustrator 26.2.1, SVG Export Plug-In . SVG Version: 6.00 Build 0)  -->
<svg version="1.1" id="Layer_1" xmlns="http://www.w3.org/2000/svg" xmlns:xlink="http://www.w3.org/1999/xlink" x="0px" y="0px"
	 viewBox="0 0 100 100" style="enable-background:new 0 0 100 100;" xml:space="preserve">
<style type="text/css">
	.st0{display:none;}
	.st1{display:inline;}
	.st2{display:inline;fill:#D32525;}
	.st3{fill:#040404;}
	.st4{fill:#D32525;}
	.st5{display:none;fill:none;stroke:#000000;stroke-miterlimit:10;}
</style>
<g id="_x31_" class="st0">
	<path class="st1" d="M4.6,57.81c0.13-1.04-0.17-2.04-0.27-3.05c-1.98-18.92,8.06-37.28,25.08-45.8c1.76-0.88,3.57-1.65,5.43-2.3
		c0.16-0.05,0.37-0.04,0.39-0.29c1.28-0.32,2.55-0.65,3.83-0.97c0.36,0.27,0.74,0.54,0.6,1.08c-0.13,0.49-0.55,0.57-0.96,0.69
		c-11.35,3.13-20.21,9.65-26.41,19.66c-5,8.08-7.14,16.92-6.47,26.41C6,55.69,6.38,58.1,6.95,60.49c0.1,0.41,0.22,0.83-0.15,1.17
		c-0.41,0.38-0.82,0.17-1.23-0.02C5.25,60.36,4.93,59.09,4.6,57.81z"/>
	<path class="st2" d="M43.81,4.19c0.31,0.28,0.65,0.56,0.55,1.08c-0.09,0.47-0.44,0.56-0.79,0.64c-0.22,0.05-0.44,0.11-0.66,0.17
		c-0.35,0.1-0.7,0.18-1-0.2c-0.33-0.42-0.18-0.82-0.02-1.21C42.53,4.52,43.17,4.35,43.81,4.19z"/>
	<path class="st1" d="M84.35,41.29c-1.34-5.29-3.8-10-7.08-13.93c-0.5-0.6-1.4-0.66-1.96-0.11v0c-0.48,0.48-0.51,1.24-0.08,1.77
		c1.72,2.12,3.24,4.36,4.59,6.86c-2.59,0.86-5.1,1.69-7.69,2.55c-0.92-1.69-1.98-3.28-3.26-4.75c-0.46-0.55-0.96-1.08-1.5-1.6
		c-0.35-0.28-0.73-0.59-1.14-0.91c-2.13-1.67-4.99-3.61-7.22-4.48c1.19-2.38,2.36-4.72,3.56-7.12c1.54,0.54,2.88,1.26,4.19,2.03
		c0.95,0.56,3.12,2.2,4.35,3.14c0.5,0.39,1.22,0.34,1.66-0.11v0c0.52-0.52,0.49-1.38-0.07-1.85c-8.42-7.04-19.99-10.06-31.44-7.15
		c-5.79,1.47-10.89,4.29-15.03,8.04c-0.91,0.81-1.76,1.67-2.57,2.57c-7.66,8.5-11.06,20.54-8.04,32.46
		C17,64.06,19.5,68.8,22.82,72.76c0.46,0.55,1.29,0.57,1.8,0.06h0c0.45-0.45,0.47-1.17,0.06-1.67c-1.78-2.12-3.27-4.45-4.49-7.03
		c2.6-0.86,5.12-1.69,7.69-2.55c0.92,1.71,1.98,3.28,3.25,4.75c0.48,0.55,0.97,1.08,1.51,1.6c0.34,0.28,0.72,0.59,1.13,0.91
		c2.15,1.66,5.01,3.61,7.23,4.49c-1.2,2.41-2.38,4.75-3.58,7.13c-2.66-1.06-6.06-3.27-8.54-5.19c-0.5-0.39-1.2-0.34-1.65,0.11h0
		c-0.52,0.52-0.5,1.37,0.06,1.84c8.42,7.04,19.99,10.06,31.44,7.15c5.79-1.47,10.89-4.29,15.03-8.04c0.91-0.81,1.76-1.67,2.57-2.57
		C83.98,65.26,87.38,53.21,84.35,41.29z M48.2,17.06c4.47-0.25,8.71,0.38,12.91,1.88c-1.22,2.44-2.42,4.8-3.61,7.18
		c-1.32-0.28-2.59-0.61-3.87-0.82c-1.29-0.2-2.6-0.31-4-0.25c-2.77,0.39-7.08,0.95-9.72,2.07c-0.85-2.55-1.66-5-2.51-7.54
		C40.37,18.29,44.98,17.34,48.2,17.06z M19.61,62.6c-1.49-3.54-2.36-7.12-2.54-10.79c-0.27-4.44,0.38-8.67,1.87-12.9
		c1.75,0.87,3.44,1.72,5.14,2.57c0.67,0.34,1.55,0.54,1.91,1.07c0.39,0.58-0.23,1.39-0.37,2.11c-0.38,1.87-0.59,3.47-0.58,5.73
		c0.36,2.82,0.96,7.04,2.08,9.71C24.59,60.94,22.12,61.77,19.61,62.6z M51.82,82.95c-4.48,0.25-8.71-0.38-12.91-1.88
		c1.22-2.44,2.42-4.81,3.63-7.23c2.56,0.75,5.13,1.17,7.85,1.13c2.8-0.37,7.1-0.97,9.73-2.07c0.84,2.55,1.66,5,2.49,7.52
		C59.7,81.73,55.06,82.64,51.82,82.95z M74.57,72v0.01c-0.82,0.92-1.67,1.77-2.56,2.57c-2.34,2.12-4.95,3.85-7.88,5.25
		c-0.86-2.6-1.69-5.11-2.56-7.71c1.25-0.62,2.34-1.34,3.39-2.12c0.22-0.17,0.44-0.33,0.65-0.51c0.39-0.31,0.43-0.88,0.08-1.23l0,0
		c-0.3-0.3-0.77-0.32-1.1-0.05c-2.53,2.03-5.53,3.56-8.89,4.4c-7.62,1.94-15.31-0.14-20.86-4.89c-0.93-0.78-1.79-1.64-2.57-2.57
		c-2.26-2.63-3.97-5.82-4.88-9.4c-1.88-7.38-0.01-14.82,4.4-20.33c0.26-0.33,0.25-0.8-0.05-1.1h0c-0.33-0.33-0.86-0.32-1.19,0.02
		c-1.78,1.85-3.08,4.63-3.86,6.64c-2.37-1.19-4.71-2.37-7.14-3.59c1.21-2.97,3.82-6.87,5.88-9.38v-0.01
		c0.81-0.92,1.66-1.77,2.55-2.58c2.34-2.11,4.96-3.85,7.89-5.25c0.86,2.6,1.69,5.11,2.56,7.71c-1.18,0.59-2.27,1.29-3.31,2.07
		c-0.26,0.19-0.51,0.39-0.76,0.59c-0.37,0.3-0.39,0.87-0.05,1.21h0c0.3,0.3,0.77,0.32,1.1,0.05c2.53-2.04,5.53-3.56,8.89-4.41
		c7.6-1.92,15.3,0.14,20.85,4.89c0.92,0.78,1.78,1.63,2.58,2.56c2.26,2.65,3.97,5.83,4.88,9.41c1.87,7.39,0,14.84-4.41,20.35
		c-0.26,0.32-0.24,0.78,0.05,1.08l0,0c0.31,0.31,0.84,0.33,1.14,0.01c1.95-2.02,3.11-4.62,3.92-6.67c2.37,1.2,4.71,2.37,7.14,3.59
		C79.24,65.58,76.63,69.48,74.57,72z M81.07,61.11c-2.43-1.22-4.8-2.42-7.25-3.64c0.79-2.58,1.17-5.13,1.14-7.84
		c-0.36-2.79-0.98-7.1-2.06-9.73c2.54-0.84,5-1.66,7.52-2.5c1.3,2.98,2.23,7.59,2.51,10.8C83.21,52.66,82.56,56.9,81.07,61.11z"/>
	<path class="st1" d="M94.85,40.02c2.63,12.93,0.41,24.93-6.99,35.88c-5.48,8.11-12.92,13.79-22.08,17.22
		c-1.31,0.49-2.68,0.84-4.02,1.26c-0.57,0.18-1.19,0.31-1.4-0.45c-0.21-0.76,0.38-0.95,0.96-1.11c5.99-1.6,11.47-4.25,16.26-8.2
		c11.24-9.29,16.82-21.26,16.7-35.85c-0.03-3.02-0.47-6.01-1.16-8.95c-0.04-0.17-0.08-0.35-0.12-0.52
		c-0.14-0.53-0.04-0.99,0.54-1.14c0.57-0.15,0.89,0.18,1.02,0.73C94.65,39.27,94.75,39.65,94.85,40.02z"/>
	<path class="st2" d="M57.38,95.51c-0.62,0.09-1.44,0.6-1.69-0.41c-0.25-1,0.69-1,1.31-1.16c0.63-0.16,1.45-0.6,1.71,0.39
		C58.95,95.33,58,95.3,57.38,95.51z"/>
	<path class="st2" d="M56.31,49.18c-0.39-0.02-0.7-0.16-0.81-0.57c-0.12-0.45,0.13-0.72,0.49-0.95c0.37-0.22,0.55-0.55,0.35-1.09
		c-0.01-0.02-0.05-0.12-0.12-0.22c0-0.02-0.02-0.04-0.03-0.07c-0.69-1.09-1.53-1.94-2.51-2.53c-0.99-0.57-2.12-0.9-3.4-0.98
		c-0.63-0.03-1.05,0.21-1.09,0.89c-0.02,0.39-0.13,0.71-0.54,0.83c-0.45,0.12-0.73-0.1-0.96-0.46c-0.35-0.57-0.82-0.58-1.34-0.26
		c-0.01,0-0.03,0.01-0.04,0.02c-1.09,0.7-1.95,1.54-2.53,2.55c-0.58,0.97-0.9,2.09-0.98,3.36c-0.04,0.63,0.16,1.07,0.85,1.12
		c0.44,0.03,0.77,0.16,0.86,0.61c0.09,0.42-0.12,0.67-0.46,0.87c-0.57,0.36-0.6,0.83-0.27,1.37c0,0.01,0.01,0.01,0.01,0.02
		c0.7,1.1,1.55,1.96,2.56,2.55c0.97,0.56,2.09,0.9,3.35,0.98c0.68,0.04,1.1-0.21,1.14-0.93c0.02-0.4,0.19-0.69,0.58-0.79
		c0.42-0.1,0.68,0.1,0.89,0.44c0.36,0.58,0.82,0.6,1.37,0.28c0.03-0.01,0.05-0.02,0.09-0.04c1.08-0.7,1.91-1.53,2.49-2.51
		c0.57-0.96,0.9-2.07,0.98-3.32C57.26,49.66,57.04,49.23,56.31,49.18z M53.3,54.5c-0.79-0.47-1.44-0.69-2.02-0.65
		c-0.79,0.05-1.43,0.61-2.03,1.68c-0.61-0.09-1.18-0.25-1.71-0.5c-0.79-0.38-1.47-0.96-2.06-1.73c0.49-0.75,0.71-1.42,0.66-2.01
		c-0.07-0.8-0.62-1.47-1.67-2.04c0.09-0.61,0.25-1.18,0.5-1.71c0.37-0.78,0.93-1.45,1.67-2.02c0.82,0.42,1.49,0.62,2.04,0.6
		c0.85-0.03,1.48-0.57,2.06-1.65c0.62,0.08,1.19,0.24,1.72,0.5c0.79,0.37,1.48,0.95,2.04,1.72c-0.49,0.78-0.71,1.44-0.66,2.03
		c0.07,0.78,0.61,1.41,1.67,2.04c-0.12,0.67-0.27,1.21-0.49,1.69C54.67,53.22,54.14,53.82,53.3,54.5z"/>
	<path class="st1" d="M58.35,31.24c-0.65,1.07-1.28,2.15-1.92,3.24c-0.72,1.22-0.79,1.27-2.12,0.87c-2.13-0.61-4.27-0.74-6.46-0.43
		c-2.73,0.4-5.15,1.42-7.27,3.08c-0.44,0.33-0.85,0.7-1.26,1.09c-0.32,0.31-0.6,0.67-1.02,0.81c-0.31,0.07-0.56-0.01-0.8-0.16
		c-0.27-0.16-0.54-0.32-0.81-0.48c-1.01-0.6-2.02-1.2-3.03-1.8c-0.47-0.28-0.75-0.66-0.46-1.18c0.07-0.12,0.14-0.21,0.23-0.27
		c0.31-0.26,0.69-0.14,1.08,0.09c0.92,0.56,1.86,1.07,2.77,1.66c0.47,0.31,0.78,0.31,1.21-0.1c0.31-0.27,0.62-0.55,0.94-0.79
		c3.68-2.95,7.95-4.12,12.75-3.6c0.68,0.08,1.36,0.2,2.01,0.39c0.55,0.15,0.85,0.07,1.14-0.46c0.5-0.95,1.08-1.86,1.63-2.79
		c0.28-0.48,0.66-0.84,1.22-0.5C58.76,30.26,58.65,30.75,58.35,31.24z"/>
	<path class="st1" d="M66.28,45.46c0.76,3.01,0.86,5.68,0.15,8.33c-0.25,0.93-0.05,1.39,0.79,1.79c0.83,0.4,1.6,0.93,2.4,1.41
		c0.49,0.29,0.81,0.68,0.45,1.24c-0.33,0.51-0.8,0.43-1.26,0.16c-0.98-0.58-1.95-1.16-2.93-1.75c-1.6-0.95-1.6-0.96-1.13-2.72
		c0.62-2.32,0.7-4.64,0.21-7c-0.6-2.85-1.88-5.33-3.89-7.43c-1.23-1.29-1.23-1.29-0.29-2.86c0.58-0.98,1.16-1.95,1.74-2.93
		c0.29-0.49,0.68-0.82,1.24-0.48c0.57,0.35,0.42,0.84,0.13,1.32c-0.5,0.82-0.93,1.68-1.48,2.46c-0.47,0.67-0.46,1.12,0.14,1.74
		C64.47,40.73,65.67,43.15,66.28,45.46z"/>
	<path class="st1" d="M66.79,63.7c-0.08,0.13-0.15,0.23-0.24,0.28c-0.32,0.28-0.73,0.12-1.14-0.12c-0.92-0.56-1.87-1.07-2.76-1.66
		c-0.47-0.31-0.75-0.23-1.15,0.13c-0.32,0.28-0.63,0.56-0.95,0.8c-3.72,2.96-7.99,4.13-12.81,3.6c-0.24-0.03-0.48-0.04-0.71-0.1
		c-2.01-0.4-2.01-0.4-3.08,1.39c-0.32,0.54-0.65,1.07-0.96,1.62c-0.13,0.24-0.32,0.43-0.57,0.54c-0.28,0.05-0.55,0.03-0.75-0.17
		c-0.25-0.25-0.37-0.58-0.19-0.9c0.85-1.47,1.71-2.94,2.61-4.38c0.32-0.48,0.86-0.28,1.32-0.14c2.14,0.65,4.32,0.83,6.54,0.52
		c2.81-0.38,5.29-1.41,7.46-3.12c0.45-0.35,0.89-0.72,1.31-1.14c1.06-1.02,1.08-1.01,2.36-0.24c0.08,0.04,0.14,0.09,0.22,0.13
		c0.98,0.58,1.97,1.17,2.94,1.75C66.73,62.77,67.11,63.12,66.79,63.7z"/>
	<path class="st1" d="M30.59,41.37c0.07-0.03,0.32,0.08,0.55,0.22c1.29,0.76,2.56,1.54,3.86,2.29c0.68,0.39,0.61,0.93,0.42,1.55
		c-0.97,3.15-0.95,6.29,0.09,9.42c0.76,2.31,2.01,4.33,3.77,6c0.72,0.69,0.78,1.28,0.22,2.1c-0.72,1.06-1.34,2.2-1.99,3.3
		c-0.28,0.48-0.64,0.87-1.22,0.55c-0.64-0.35-0.46-0.87-0.16-1.38c0.54-0.9,1.05-1.81,1.62-2.69c0.3-0.47,0.33-0.78-0.09-1.22
		c-3.06-3.27-4.54-7.17-4.56-11.63c-0.01-1.41,0.16-2.8,0.57-4.15c0.17-0.54,0-0.8-0.46-1.05c-0.99-0.55-1.96-1.15-2.93-1.74
		c-0.33-0.2-0.54-0.46-0.47-0.88C29.87,41.73,30.07,41.54,30.59,41.37z"/>
	<path class="st1" d="M39.62,51.83c0.43-0.11,0.86-0.25,1.29-0.32c0.44-0.07,0.77,0.15,0.88,0.57c0.11,0.43-0.08,0.79-0.5,0.92
		c-0.79,0.24-1.6,0.45-2.41,0.63c-0.47,0.11-0.84-0.1-0.96-0.57c-0.12-0.48,0.12-0.81,0.57-0.96c0.37-0.12,0.75-0.19,1.12-0.29
		C39.61,51.82,39.62,51.83,39.62,51.83z"/>
	<path class="st1" d="M59.99,46.66c0.4-0.1,0.8-0.23,1.21-0.3c0.44-0.08,0.76,0.14,0.88,0.57c0.11,0.42-0.05,0.8-0.48,0.92
		c-0.82,0.24-1.66,0.46-2.5,0.63c-0.43,0.09-0.77-0.14-0.88-0.56c-0.11-0.42,0.07-0.78,0.49-0.92
		C59.12,46.85,59.56,46.77,59.99,46.66C60,46.66,59.99,46.66,59.99,46.66z"/>
	<path class="st1" d="M53.38,59.95c0.09,0.44,0.19,0.87,0.26,1.31c0.06,0.41-0.16,0.7-0.54,0.81c-0.42,0.12-0.79-0.01-0.94-0.44
		c-0.3-0.84-0.53-1.7-0.65-2.58c-0.06-0.41,0.16-0.71,0.54-0.82c0.42-0.13,0.78,0.03,0.94,0.45C53.15,59.09,53.25,59.52,53.38,59.95
		z"/>
	<path class="st1" d="M48.23,39.65c0.09,0.44,0.2,0.87,0.26,1.31c0.06,0.41-0.16,0.71-0.54,0.82c-0.42,0.12-0.78-0.03-0.94-0.46
		c-0.31-0.83-0.53-1.7-0.66-2.58c-0.06-0.41,0.17-0.7,0.54-0.81c0.42-0.12,0.78,0.02,0.94,0.45C48,38.79,48.1,39.22,48.23,39.65z"/>
	<path class="st1" d="M41.19,58.02c-0.4,0.1-0.8,0.23-1.21,0.3c-0.45,0.08-0.76-0.15-0.87-0.57c-0.1-0.38,0.01-0.73,0.41-0.88
		c0.86-0.33,1.75-0.56,2.66-0.68c0.41-0.05,0.7,0.19,0.79,0.57c0.1,0.42-0.06,0.78-0.49,0.92C42.06,57.83,41.62,57.91,41.19,58.02
		C41.19,58.02,41.19,58.02,41.19,58.02z"/>
	<path class="st1" d="M61.5,52.87c-0.4,0.1-0.8,0.23-1.21,0.3c-0.44,0.08-0.77-0.14-0.89-0.56c-0.11-0.38,0.03-0.74,0.41-0.89
		c0.88-0.34,1.8-0.6,2.75-0.68c0.38-0.04,0.61,0.23,0.7,0.56c0.1,0.38,0,0.73-0.39,0.89c-0.44,0.17-0.9,0.28-1.36,0.42
		C61.51,52.9,61.5,52.89,61.5,52.87z"/>
	<path class="st1" d="M52.87,38.51c0.1,0.4,0.23,0.8,0.3,1.21c0.08,0.44-0.14,0.76-0.56,0.88c-0.38,0.11-0.73-0.03-0.88-0.41
		c-0.34-0.86-0.56-1.75-0.68-2.66c-0.06-0.42,0.19-0.69,0.57-0.79c0.42-0.11,0.78,0.04,0.92,0.48
		C52.67,37.64,52.76,38.08,52.87,38.51z"/>
	<path class="st1" d="M41.98,41.21c-0.1-0.4-0.22-0.8-0.3-1.21c-0.09-0.45,0.13-0.77,0.55-0.89c0.42-0.12,0.78,0.03,0.94,0.46
		c0.3,0.84,0.53,1.7,0.65,2.58c0.05,0.4-0.17,0.71-0.55,0.81c-0.42,0.12-0.78-0.04-0.93-0.47c-0.15-0.42-0.23-0.86-0.34-1.29
		C41.99,41.21,41.98,41.21,41.98,41.21z"/>
	<path class="st1" d="M58.01,58.8c0.11,0.43,0.25,0.86,0.32,1.29c0.07,0.42-0.19,0.69-0.56,0.79c-0.37,0.1-0.73,0-0.89-0.39
		c-0.34-0.86-0.56-1.75-0.68-2.66c-0.05-0.4,0.18-0.7,0.56-0.8c0.42-0.11,0.78,0.05,0.93,0.48C57.82,57.93,57.91,58.37,58.01,58.8
		C58.01,58.8,58.01,58.8,58.01,58.8z"/>
	<path class="st1" d="M47.13,61.46c-0.1-0.4-0.23-0.8-0.3-1.21c-0.07-0.45,0.17-0.76,0.6-0.86c0.38-0.09,0.73,0.07,0.87,0.45
		c0.32,0.86,0.56,1.75,0.66,2.67c0.05,0.42-0.22,0.68-0.6,0.76c-0.38,0.08-0.73-0.04-0.86-0.44C47.34,62.38,47.25,61.92,47.13,61.46
		C47.13,61.46,47.13,61.46,47.13,61.46z"/>
	<path class="st1" d="M59.22,43.53c-0.47,0.1-0.9,0.21-1.34,0.27c-0.44,0.06-0.77-0.17-0.86-0.6c-0.09-0.42,0.09-0.78,0.53-0.9
		c0.83-0.23,1.66-0.45,2.5-0.63c0.45-0.1,0.75,0.18,0.85,0.6c0.09,0.38-0.05,0.72-0.44,0.87C60.04,43.3,59.61,43.41,59.22,43.53z"/>
	<path class="st1" d="M38.54,47.13c0.4-0.1,0.8-0.23,1.21-0.3c0.45-0.07,0.76,0.17,0.86,0.59c0.09,0.38-0.06,0.73-0.45,0.87
		c-0.86,0.32-1.75,0.56-2.67,0.67c-0.42,0.05-0.68-0.22-0.76-0.6c-0.09-0.38,0.04-0.73,0.44-0.87
		C37.61,47.34,38.08,47.25,38.54,47.13C38.54,47.13,38.54,47.13,38.54,47.13z"/>
</g>
<g>
	<path class="st3" d="M95.1,43.17c-0.84-5.99-2.94-11.67-6.02-16.74c-0.39-0.65-1.26-0.82-1.89-0.39c-0.37,0.26-0.58,0.68-0.58,1.1
		c0,0.23,0.06,0.47,0.19,0.68c1.24,2.03,2.25,4.06,2.9,5.88c-2.46,0.36-4.9,0.73-7.35,1.08c-3.08,0.45-6.16,0.87-9.23,1.36
		c-0.93,0.16-1.51,0.07-2.1-0.83c-1.67-2.58-3.88-4.7-6.53-6.53c4.66-3.69,9.27-7.33,13.9-10.99c1.71,1.39,3.49,3.27,5.13,5.34
		c0.43,0.55,1.22,0.66,1.79,0.26c0.38-0.26,0.58-0.68,0.58-1.1c0-0.29-0.1-0.58-0.29-0.82C79.21,13.49,70.18,7.64,59.93,5.44
		C57.9,5,55.86,4.66,53.78,4.54c-0.14-0.01-9.4,0.16-10.37,0.31C23.74,7.89,8.64,22.61,5.18,42.12
		c-2.03,11.41,0.49,22.79,6.35,32.09c0.4,0.64,1.26,0.8,1.89,0.38c0.37-0.26,0.57-0.67,0.57-1.09c0-0.25-0.07-0.5-0.22-0.73
		c-1.3-2.08-2.44-4.28-3.42-6.63c5.76-0.85,11.44-1.68,17.12-2.53c0.63-0.1,1,0.02,1.37,0.59c1.64,2.51,3.7,4.61,6.12,6.38
		c0.18,0.14,0.37,0.28,0.63,0.48c-4.64,3.68-9.24,7.31-13.9,10.99c-1.63-1.45-3.13-2.99-4.51-4.62c-0.45-0.54-1.22-0.65-1.8-0.25
		c-0.38,0.26-0.58,0.68-0.58,1.1c0,0.3,0.1,0.59,0.3,0.84c5.1,6.14,11.85,10.99,19.78,13.76c25.75,8.99,53.44-6.26,59.59-32.83
		c0.46-1.99,0.94-4,0.94-6.05C95.65,51.44,95.49,45.02,95.1,43.17z M51.9,24.33c0,0-2.91-0.01-3.52,0.03
		c-3.25,0.19-6.35,1-9.42,2.45c-0.29-2-0.58-4-0.88-5.99c-0.11-0.76-0.84-1.27-1.59-1.11l0,0c-0.69,0.14-1.15,0.8-1.05,1.5
		c0.24,1.67,0.67,4.61,0.92,6.34c0.05,0.35,0.13,0.65-0.29,0.91c-2.81,1.83-5.18,4.13-7.17,7c-3.71-4.69-7.34-9.29-10.99-13.91
		c4.44-5,9.7-8.76,15.92-11.34c0.25,1.71,0.5,3.4,0.75,5.08c0.11,0.76,0.84,1.27,1.59,1.11h0c0.69-0.14,1.15-0.8,1.05-1.5
		c-0.28-1.86-0.54-3.72-0.81-5.57C40.75,7.6,51.55,6.8,58.55,7.88c6.54,1.32,12.41,4.02,17.77,8.14c-3.5,2.76-6.91,5.46-10.33,8.16
		c-1.16,0.91-2.32,1.83-3.48,2.75c-0.26,0.21-0.48,0.38-0.85,0.18c-2.95-1.53-6.08-2.42-9.39-2.71
		C52.22,24.4,52.08,24.38,51.9,24.33z M16.03,23.81c0.04-0.05,0.08-0.11,0.12-0.16c1.72,2.18,3.41,4.31,5.09,6.44
		c1.88,2.37,3.73,4.76,5.65,7.1c0.45,0.56,0.48,0.98,0.12,1.55c-0.24,0.4-0.41,0.85-0.6,1.28c-0.38,0.92-0.13,1.73,0.62,2.02
		c0.75,0.3,1.44-0.04,1.82-0.95c0.95-2.25,2.17-4.36,3.82-6.16c6.51-7.07,14.52-9.66,23.74-6.98c9.03,2.62,14.58,8.89,16.2,18.18
		c2.22,12.82-6.6,24.68-19.41,26.51c-12.77,1.83-24.7-7.55-25.97-20.39c-0.2-1.96-0.16-3.9,0.14-5.84c0.15-0.96-0.31-1.69-1.13-1.8
		c-0.74-0.09-1.34,0.43-1.48,1.32c-0.11,0.63-0.18,1.27-0.29,2.03c-0.05,0.79-0.01,3,0.02,3.57c0.2,3.28,1.01,6.4,2.46,9.47
		c-5.92,0.87-11.69,1.71-17.56,2.57c-1.18-3.55-1.75-7.99-1.86-12.39C7.28,41.34,10.05,31.61,16.03,23.81z M23.94,83.92
		c-0.05-0.04-0.11-0.08-0.16-0.12c4.78-3.77,9.51-7.51,14.26-11.27c0.03,0.02,0.06,0.03,0.09,0.05c4.48,2.32,9.61,3.08,14.61,2.4
		c3.06-0.41,6.46-1.07,8.4-1.98c0.86,5.92,1.71,11.72,2.56,17.57c-3.53,1.16-7.97,1.72-12.34,1.84
		C41.51,92.67,31.77,89.88,23.94,83.92z M75.43,53.2c0.12-0.92,0.15-1.84,0.16-2.77c0.01-0.86,0.02-1.85,0-2.14
		c-0.21-3.28-1.01-6.41-2.47-9.47c5.93-0.86,11.7-1.7,17.57-2.56c1.26,3.8,1.77,8.91,1.78,13.84c0.03,9.33-2.78,18.5-8.42,25.92
		c-0.04,0.05-0.08,0.1-0.12,0.15c-0.63-0.79-1.22-1.54-1.82-2.29c-0.7-0.86-1.46-1.02-2.13-0.45c-0.61,0.52-0.59,1.3,0.05,2.12
		c0.71,0.9,1.42,1.81,2.15,2.73c-4.46,5-9.72,8.77-15.92,11.34c-0.67-4.58-1.33-9.09-1.99-13.6c-0.19-1.29-0.36-2.58-0.56-3.86
		c-0.05-0.35-0.04-0.6,0.31-0.82c2.82-1.83,5.17-4.14,7.16-6.98c0.78,0.99,1.53,1.93,2.28,2.87c0.96,1.21,1.91,2.43,2.87,3.63
		c0.65,0.81,1.41,0.95,2.06,0.41c0.61-0.51,0.65-1.27,0.04-2.05c-1.9-2.42-3.82-4.83-5.77-7.31C74.1,59.16,75.03,56.29,75.43,53.2z"
		/>
	<g>
		<path class="st4" d="M50.01,42.08c-4.38-0.01-7.94,3.52-7.94,7.89c-0.01,4.38,3.52,7.94,7.89,7.95c4.38,0.01,7.94-3.52,7.95-7.89
			C57.92,45.64,54.39,42.09,50.01,42.08z M49.95,55.28c-2.89-0.01-5.24-2.36-5.24-5.25c-0.01-2.95,2.34-5.31,5.27-5.31
			c2.94,0,5.3,2.36,5.29,5.3C55.27,52.95,52.89,55.3,49.95,55.28z"/>
		<path class="st3" d="M51.3,34.92c0,0.67,0.03,1.34-0.01,2.01c-0.05,0.77-0.47,1.24-1.27,1.29c-0.75,0.04-1.31-0.47-1.33-1.31
			c-0.04-1.31-0.04-2.63,0-3.94c0.02-0.84,0.56-1.34,1.31-1.33c0.75,0.01,1.23,0.5,1.31,1.35c0.01,0.06,0.01,0.12,0.01,0.17
			C51.31,33.75,51.31,34.33,51.3,34.92C51.31,34.92,51.3,34.92,51.3,34.92z"/>
		<path class="st3" d="M48.68,65.06c0-0.67-0.04-1.34,0.01-2.01c0.05-0.79,0.57-1.26,1.29-1.27c0.72,0,1.28,0.46,1.3,1.25
			c0.05,1.37,0.05,2.74,0,4.11c-0.03,0.78-0.6,1.24-1.32,1.22c-0.72-0.02-1.22-0.49-1.27-1.29C48.65,66.4,48.68,65.73,48.68,65.06z"
			/>
		<path class="st3" d="M38.17,53.44c-0.06,0.5-0.31,0.9-0.78,1.16c-1.06,0.61-2.11,1.25-3.18,1.84c-0.82,0.46-1.59,0.26-1.97-0.45
			c-0.36-0.68-0.13-1.36,0.66-1.84c1.08-0.64,2.16-1.28,3.26-1.87C37.12,51.78,38.19,52.4,38.17,53.44z"/>
		<path class="st3" d="M63.18,47.91c-0.63-0.02-1.06-0.3-1.28-0.89c-0.21-0.57-0.07-1.11,0.41-1.4c1.26-0.79,2.54-1.55,3.86-2.23
			c0.57-0.29,1.16-0.03,1.52,0.53c0.36,0.57,0.33,1.21-0.18,1.59c-1.24,0.92-2.62,1.63-3.99,2.35
			C63.42,47.91,63.28,47.89,63.18,47.91z"/>
		<path class="st3" d="M64.25,61.61c-0.02,1.01-0.95,1.67-1.79,1.24c-1.27-0.64-2.51-1.37-3.72-2.12c-0.63-0.4-0.71-1.06-0.37-1.7
			c0.37-0.67,1.03-0.85,1.66-0.53c1.27,0.65,2.49,1.4,3.71,2.14C64.11,60.87,64.29,61.25,64.25,61.61z"/>
		<path class="st3" d="M61.39,55.25c0.23-0.01,0.47,0.08,0.71,0.22c1.06,0.61,2.13,1.21,3.18,1.84c0.75,0.45,1,1.19,0.65,1.85
			c-0.37,0.69-1.15,0.88-1.96,0.43c-1.1-0.61-2.18-1.24-3.26-1.87c-0.6-0.35-0.84-0.91-0.62-1.57
			C60.27,55.55,60.71,55.23,61.39,55.25z"/>
		<path class="st3" d="M66.06,41.49c-0.01,0.55-0.3,0.92-0.77,1.19c-1.06,0.61-2.11,1.24-3.18,1.84c-0.81,0.45-1.58,0.25-1.96-0.47
			c-0.36-0.67-0.12-1.35,0.67-1.82c1.08-0.64,2.15-1.29,3.26-1.88C65.05,39.84,66.09,40.46,66.06,41.49z"/>
		<path class="st3" d="M39.42,42.41c0.59,0.37,0.72,0.99,0.4,1.62c-0.34,0.68-0.99,0.95-1.62,0.63c-1.32-0.67-2.6-1.44-3.85-2.24
			C33.86,42.12,33.81,41.54,34,41c0.2-0.55,0.63-0.81,1.26-0.86c0.13,0.03,0.31,0.04,0.46,0.13L39.42,42.41z"/>
		<path class="st3" d="M39.97,56.55c0,0.51-0.25,0.9-0.68,1.15c-1.1,0.65-2.21,1.31-3.33,1.93c-0.75,0.41-1.53,0.19-1.89-0.47
			c-0.34-0.63-0.13-1.38,0.56-1.8c1.1-0.66,2.2-1.31,3.34-1.92C38.94,54.92,39.97,55.52,39.97,56.55z"/>
		<path class="st3" d="M41.77,40.13c0.02,1.16-0.97,1.82-1.9,1.33c-1.22-0.63-2.39-1.33-3.56-2.06c-0.65-0.4-0.77-1.16-0.4-1.77
			c0.37-0.6,1.08-0.82,1.75-0.46c1.18,0.64,2.33,1.33,3.48,2.01C41.55,39.43,41.77,39.8,41.77,40.13z"/>
		<path class="st3" d="M54.93,34.95c0,0.64,0.02,1.29,0,1.93c-0.03,0.81-0.57,1.34-1.31,1.34c-0.7,0-1.29-0.51-1.31-1.26
			c-0.04-1.37-0.04-2.75,0.01-4.12c0.03-0.74,0.65-1.23,1.35-1.21c0.72,0.02,1.22,0.52,1.26,1.3
			C54.95,33.61,54.92,34.28,54.93,34.95z"/>
		<path class="st3" d="M45.06,65.07c0-0.67-0.02-1.34,0.01-2.01c0.03-0.76,0.57-1.27,1.28-1.28c0.71-0.01,1.3,0.48,1.33,1.23
			c0.05,1.37,0.04,2.75,0,4.12c-0.02,0.75-0.62,1.25-1.33,1.24c-0.72-0.01-1.24-0.51-1.28-1.28C45.03,66.41,45.06,65.74,45.06,65.07
			z"/>
	</g>
</g>
<circle class="st5" cx="46.05" cy="83.47" r="4.94"/>
<circle class="st5" cx="83.81" cy="53.2" r="4.94"/>
<circle class="st5" cx="53.6" cy="16.48" r="4.94"/>
<circle class="st5" cx="16.39" cy="45.58" r="4.94"/>
</svg>
