<?xml version="1.0" encoding="utf-8"?>
<!-- Generator: Adobe Illustrator 26.2.1, SVG Export Plug-In . SVG Version: 6.00 Build 0)  -->
<svg version="1.1" id="Layer_1" xmlns="http://www.w3.org/2000/svg" xmlns:xlink="http://www.w3.org/1999/xlink" x="0px" y="0px"
	 viewBox="0 0 100 100" style="enable-background:new 0 0 100 100;" xml:space="preserve">
<style type="text/css">
	.st0{fill:none;stroke:#000000;stroke-width:3;stroke-linecap:round;stroke-miterlimit:10;}
	.st1{fill:#D32525;}
</style>
<g>
	<path class="st0" d="M11.63,26.82 M86.08,76.49c-8,10.94-20.85,18.1-35.65,18.24C25.29,94.97,5.5,75.07,5.24,50.5
		c-0.07-6.76,1.33-13.16,3.89-18.9 M11.63,26.82C19.41,13.89,33.55,5.32,49.78,5.27C74.8,5.18,94.59,25.12,94.76,50.03
		c-0.04,7.29-1.79,14.19-4.89,20.29 M52.86,85.36c2.64-0.22,5.11-0.68,7.53-1.43c4.92-1.52,9.34-3.95,13.16-7.41
		c2.64-2.38,2.33-6.76-0.63-8.5c-5.53-3.25-11.1-6.41-16.64-9.63c-0.38-0.22-0.64-0.2-1.02,0.03c-3.47,2.08-6.97,2.06-10.46,0.06
		c-0.53-0.3-0.85-0.24-1.32,0.03c-5.32,3.09-10.65,6.15-15.97,9.22c-3.47,2-3.91,6.39-0.87,9.01c6.11,5.26,13.14,8.09,20.74,8.67
		 M80.49,31.86c-4.19-7.25-10.64-12.43-19.31-15.52c-3.39-1.21-7.03,1.39-7.05,4.94c-0.03,6.35,0,12.71-0.02,19.06
		c0,0.44,0.13,0.69,0.52,0.87c0.87,0.41,1.64,0.99,2.32,1.67c2.22,2.23,3.15,4.95,2.98,8.09c5.76,3.33,11.47,6.71,17.27,9.94
		c2.92,1.63,6.93-0.54,7.57-3.86c1.01-5.21,1.02-10.42-0.36-15.55c-0.48-1.8-1.06-3.51-1.72-5.13 M32.17,55.45
		c2.36-1.35,4.74-2.67,7.1-4.02c0.54-0.31,0.75-0.61,0.75-1.26c0.05-3.95,1.76-6.97,5.23-8.91c0.44-0.25,0.61-0.5,0.6-1
		c-0.02-3.15-0.01-6.3-0.01-9.44c0-3.12,0.01-6.24,0-9.36c-0.02-3.68-3.59-6.28-7.08-5.1c-8.28,2.8-14.73,7.94-19.22,15.43
		c-4.54,7.57-5.91,15.75-4.56,24.46c0.77,4.99,5.59,6.2,8.79,4.19c1.22-0.77,2.46-1.52,3.7-2.26 M32.17,55.45 M27.48,58.17"/>
</g>
<g>
	<path class="st1" d="M50,47.03c1.64,0,2.97,1.33,2.97,2.97s-1.33,2.97-2.97,2.97s-2.97-1.33-2.97-2.97S48.36,47.03,50,47.03
		 M50,45.03c-2.74,0-4.97,2.22-4.97,4.97s2.22,4.97,4.97,4.97s4.97-2.22,4.97-4.97S52.74,45.03,50,45.03L50,45.03z"/>
</g>
</svg>
