<svg xmlns="http://www.w3.org/2000/svg" width="134.373" height="119.683" viewBox="0 0 134.373 119.683">
  <path id="Path_19" data-name="Path 19" d="M202.593,83.333a6.169,6.169,0,0,0-5.562-3.177H154.756l-13.35-38.129c-1.113-4.237-8.9-4.237-11.125,0l-13.35,38.129H74.656a6.169,6.169,0,0,0-5.563,3.177c-1.112,2.118,0,4.237,2.225,6.355l34.488,23.3-13.35,38.129c-1.113,2.118,0,4.237,2.225,6.355a7.408,7.408,0,0,0,6.675,0l34.488-23.3,34.488,23.3a5.788,5.788,0,0,0,6.675,0c2.225-1.059,3.338-3.177,2.225-6.355l-13.35-38.129,34.488-23.3C202.593,87.57,203.706,85.452,202.593,83.333Zm-47.838,45.057c-2.225,1.059,5.291-4.117-.549,0l2.285,3.5,7.164,7.577L157.127,125.8c-1.113-1.059,4.81-22.785,3.7-22.785l-23.868-41.92c9.332,27.3-12.487,38.656,17.8,38.656Z" transform="translate(-68.657 -38.85)" fill="#f93"/>
</svg>